<svg width="256" height="256" viewBox="0 0 256 256" fill="none" xmlns="http://www.w3.org/2000/svg">
<g clip-path="url(#clip0)">
<path d="M256 195.725V60.2751C256 47.7837 245.916 37.7002 233.425 37.7002H22.5749C10.0835 37.7002 -3.05176e-05 47.7837 -3.05176e-05 60.2751V195.725C-3.05176e-05 208.216 10.0835 218.3 22.5749 218.3H233.425C245.916 218.3 256 208.216 256 195.725ZM236.285 58.6197C241.251 63.5861 238.542 68.7031 235.833 71.2616L174.73 127.248L233.425 188.35C235.231 190.457 236.435 193.768 234.328 196.026C232.372 198.434 227.857 198.283 225.9 196.778L160.132 140.642L127.925 169.989L95.8683 140.642L30.0999 196.778C28.1434 198.283 23.6284 198.434 21.6719 196.026C19.5649 193.768 20.7689 190.457 22.5749 188.35L81.2698 127.248L20.1669 71.2616C17.4579 68.7031 14.7489 63.5861 19.7154 58.6197C24.6819 53.6532 29.7989 56.0612 34.0129 59.6732L127.925 135.525L221.987 59.6732C226.201 56.0612 231.318 53.6532 236.285 58.6197V58.6197Z" fill="white"/>
</g>
<defs>
<clipPath id="clip0">
<rect width="256" height="256" fill="white"/>
</clipPath>
</defs>
</svg>
