<svg width="256" height="256" viewBox="0 0 256 256" fill="none" xmlns="http://www.w3.org/2000/svg">
<g clip-path="url(#clip0)">
<path d="M127.966 62.3236C91.621 62.3236 62.2892 91.6554 62.2892 128C62.2892 164.345 91.621 193.676 127.966 193.676C164.31 193.676 193.642 164.345 193.642 128C193.642 91.6554 164.31 62.3236 127.966 62.3236ZM127.966 170.685C104.462 170.685 85.2808 151.504 85.2808 128C85.2808 104.496 104.462 85.3152 127.966 85.3152C151.469 85.3152 170.65 104.496 170.65 128C170.65 151.504 151.469 170.685 127.966 170.685ZM196.332 44.3275C187.846 44.3275 180.993 51.1801 180.993 59.6658C180.993 68.1516 187.846 75.0042 196.332 75.0042C204.818 75.0042 211.67 68.1836 211.67 59.6658C211.673 57.6509 211.278 55.6552 210.508 53.7931C209.738 51.931 208.608 50.2391 207.183 48.8143C205.758 47.3895 204.067 46.2598 202.205 45.4899C200.342 44.72 198.347 44.3249 196.332 44.3275V44.3275ZM255.988 128C255.988 110.324 256.148 92.8082 255.156 75.1643C254.163 54.6705 249.488 36.4822 234.502 21.496C219.483 6.47789 201.327 1.83476 180.833 0.842087C163.157 -0.150584 145.642 0.00952465 127.998 0.00952465C110.322 0.00952465 92.8058 -0.150584 75.1619 0.842087C54.6681 1.83476 36.4798 6.50991 21.4937 21.496C6.47551 36.5142 1.83238 54.6705 0.839706 75.1643C-0.152964 92.8402 0.00714428 110.356 0.00714428 128C0.00714428 145.644 -0.152964 163.192 0.839706 180.836C1.83238 201.33 6.50754 219.518 21.4937 234.504C36.5118 249.522 54.6681 254.165 75.1619 255.158C92.8379 256.151 110.354 255.99 127.998 255.99C145.674 255.99 163.189 256.151 180.833 255.158C201.327 254.165 219.515 249.49 234.502 234.504C249.52 219.486 254.163 201.33 255.156 180.836C256.18 163.192 255.988 145.676 255.988 128V128ZM227.809 203.507C225.471 209.335 222.654 213.69 218.139 218.173C213.623 222.688 209.301 225.506 203.473 227.843C186.629 234.536 146.634 233.031 127.966 233.031C109.297 233.031 69.2699 234.536 52.4266 227.875C46.5986 225.538 42.2437 222.72 37.7607 218.205C33.2456 213.69 30.4277 209.367 28.0901 203.539C21.4296 186.664 22.9346 146.669 22.9346 128C22.9346 109.331 21.4296 69.3043 28.0901 52.461C30.4277 46.633 33.2456 42.2781 37.7607 37.7951C42.2757 33.312 46.5986 30.4621 52.4266 28.1245C69.2699 21.464 109.297 22.969 127.966 22.969C146.634 22.969 186.661 21.464 203.505 28.1245C209.333 30.4621 213.688 33.28 218.171 37.7951C222.686 42.3101 225.504 46.633 227.841 52.461C234.502 69.3043 232.997 109.331 232.997 128C232.997 146.669 234.502 186.664 227.809 203.507Z" fill="white"/>
</g>
<defs>
<clipPath id="clip0">
<rect width="256" height="256" fill="white"/>
</clipPath>
</defs>
</svg>
