<svg width="256" height="256" viewBox="0 0 256 256" fill="none" xmlns="http://www.w3.org/2000/svg">
<g clip-path="url(#clip0)">
<path d="M157.071 82.2857C157.071 98.3414 144.056 111.357 128 111.357C111.944 111.357 98.9286 98.3414 98.9286 82.2857C98.9286 66.23 111.944 53.2142 128 53.2142C144.056 53.2142 157.071 66.23 157.071 82.2857Z" stroke="#50b1b6" stroke-width="15" stroke-linecap="round" stroke-linejoin="round"/>
<path d="M194.249 115.903C180.693 147.534 162.561 181.545 147.756 207.738C140.366 220.814 133.828 231.9 129.14 239.713C128.747 240.368 128.367 241.001 128 241.609C127.633 241.001 127.253 240.368 126.86 239.713C122.172 231.9 115.634 220.814 108.243 207.738C93.4388 181.545 75.3068 147.534 61.7507 115.903C36.5648 57.1356 78.2149 7.5 128 7.5C177.785 7.5 219.435 57.1356 194.249 115.903Z" stroke="#50b1b6" stroke-width="15" stroke-linecap="round" stroke-linejoin="round"/>
</g>
<defs>
<clipPath id="clip0">
<rect width="256" height="256" fill="white"/>
</clipPath>
</defs>
</svg>
