<svg width="256" height="256" viewBox="0 0 256 256" fill="none" xmlns="http://www.w3.org/2000/svg">
<path d="M189.091 197.818H66.9091V34.9091H189.091V197.818ZM151.273 232.727H104.727V221.091H151.273V232.727ZM174.545 0H81.4545C72.1961 0 63.3168 3.67791 56.7701 10.2246C50.2234 16.7714 46.5455 25.6506 46.5455 34.9091V221.091C46.5455 230.349 50.2234 239.229 56.7701 245.775C63.3168 252.322 72.1961 256 81.4545 256H174.545C183.804 256 192.683 252.322 199.23 245.775C205.777 239.229 209.455 230.349 209.455 221.091V34.9091C209.455 25.6506 205.777 16.7714 199.23 10.2246C192.683 3.67791 183.804 0 174.545 0V0Z" fill="#50b1b6"/>
</svg>
