<svg width="256" height="256" viewBox="0 0 256 256" fill="none" xmlns="http://www.w3.org/2000/svg">
<g clip-path="url(#clip0)">
<path d="M134.159 0C81.5327 0 29.5304 35.0813 29.5304 91.8596C29.5304 127.967 49.8406 148.482 62.1498 148.482C67.2294 148.482 70.1508 134.326 70.1508 130.33C70.1508 125.562 57.9975 115.403 57.9975 95.5523C57.9975 54.3165 89.386 25.078 130.006 25.078C164.932 25.078 190.781 44.9286 190.781 81.3967C190.781 108.633 179.859 159.716 144.466 159.716C131.697 159.716 120.766 150.484 120.766 137.256C120.766 117.865 134.306 99.0974 134.306 79.0908C134.306 45.142 86.1446 51.2966 86.1446 92.3273C86.1446 100.944 87.2196 110.479 91.0683 118.333C83.9864 148.802 69.5271 194.19 69.5271 225.579C69.5271 235.27 70.914 244.814 71.8331 254.505C73.5728 256.458 72.7029 256.253 75.3699 255.277C101.219 219.884 100.3 212.966 111.994 166.65C118.304 178.656 134.61 185.114 147.535 185.114C201.999 185.114 226.47 132.029 226.47 84.1786C226.47 33.2513 182.46 0.0164123 134.151 0.0164123L134.159 0Z" fill="white"/>
</g>
<defs>
<clipPath id="clip0">
<rect width="256" height="256" fill="white"/>
</clipPath>
</defs>
</svg>
